<svg width="320" height="118" viewBox="0 0 320 118" fill="none" xmlns="http://www.w3.org/2000/svg">
    <path d="M0 0C55.2478 26.936 195.393 118.388 320 117.999V0H0Z" fill="#FFE680" />
    <g filter="url(#filter0_d)">
        <path d="M0 0C55.1615 27.0801 195.588 97.3762 320 96.9847V0H0Z" fill="#BE9167" />
    </g>
    <path d="M319.5 0.808228C264.339 27.0983 124.412 116.358 0 115.977V0.808228H319.5Z" fill="#FFE680" />
    <g filter="url(#filter1_d)">
        <path d="M319 0C263.839 26.2901 123.412 94.5356 -1 94.1555V0H319Z" fill="#BE9167" />
    </g>
    <path d="M321 0C265.839 25.4862 124.412 76.3665 0 75.998V0H321Z" fill="#3A0404" />
    <defs>
        <filter id="filter0_d" x="-4" y="0" width="328" height="104.986" filterUnits="userSpaceOnUse"
            color-interpolation-filters="sRGB">
            <feFlood flood-opacity="0" result="BackgroundImageFix" />
            <feColorMatrix in="SourceAlpha" type="matrix" values="0 0 0 0 0 0 0 0 0 0 0 0 0 0 0 0 0 0 127 0" />
            <feOffset dy="4" />
            <feGaussianBlur stdDeviation="2" />
            <feColorMatrix type="matrix" values="0 0 0 0 0 0 0 0 0 0 0 0 0 0 0 0 0 0 0.25 0" />
            <feBlend mode="normal" in2="BackgroundImageFix" result="effect1_dropShadow" />
            <feBlend mode="normal" in="SourceGraphic" in2="effect1_dropShadow" result="shape" />
        </filter>
        <filter id="filter1_d" x="-5" y="0" width="328" height="102.157" filterUnits="userSpaceOnUse"
            color-interpolation-filters="sRGB">
            <feFlood flood-opacity="0" result="BackgroundImageFix" />
            <feColorMatrix in="SourceAlpha" type="matrix" values="0 0 0 0 0 0 0 0 0 0 0 0 0 0 0 0 0 0 127 0" />
            <feOffset dy="4" />
            <feGaussianBlur stdDeviation="2" />
            <feColorMatrix type="matrix" values="0 0 0 0 0 0 0 0 0 0 0 0 0 0 0 0 0 0 0.25 0" />
            <feBlend mode="normal" in2="BackgroundImageFix" result="effect1_dropShadow" />
            <feBlend mode="normal" in="SourceGraphic" in2="effect1_dropShadow" result="shape" />
        </filter>
    </defs>
</svg>